<svg xmlns="http://www.w3.org/2000/svg" viewBox="0 0 242 136">
  <path d="M5.00,82.00 L5.00,10.00 L20.41,10.00 L20.41,82.00 L5.00,82.00 Z M12.20,82.00 L12.20,70.20 L55.00,70.20 L55.00,82.00 L12.20,82.00 Z M64.00,82.00 L64.00,10.00 L79.41,10.00 L79.41,82.00 L64.00,82.00 Z M89.40,82.00 L89.40,10.00 L109.31,10.00 L141.31,73.59 L136.40,74.80 L136.40,10.00 L151.40,10.00 L151.40,82.00 L131.49,82.00 L99.49,18.41 L104.40,17.20 L104.40,82.00 L89.40,82.00 Z M161.40,82.00 L161.40,10.00 L176.81,10.00 L176.81,82.00 L161.40,82.00 Z M171.90,44.59 L204.31,10.00 L224.81,10.00 L190.60,44.59 L171.90,44.59 Z M205.90,82.00 L171.70,44.59 L190.60,44.59 L226.81,82.00 L205.90,82.00 Z" fill="#2B2724"/>
  <path d="M133.65,126.24 L133.65,96.00 L142.01,96.00 L155.45,122.71 L153.39,123.21 L153.39,96.00 L159.69,96.00 L159.69,126.24 L151.33,126.24 L137.89,99.53 L139.95,99.03 L139.95,126.24 L133.65,126.24 Z M163.89,126.24 L163.89,96.00 L170.36,96.00 L170.36,126.24 L163.89,126.24 Z M166.91,126.24 L166.91,121.29 L184.89,121.29 L184.89,126.24 L166.91,126.24 Z M188.67,126.24 L188.67,96.00 L195.14,96.00 L195.14,126.24 L188.67,126.24 Z M199.34,126.24 L199.34,96.00 L205.81,96.00 L205.81,126.24 L199.34,126.24 Z M203.75,110.53 L217.36,96.00 L225.97,96.00 L211.60,110.53 L203.75,110.53 Z M218.03,126.24 L203.66,110.53 L211.60,110.53 L226.81,126.24 L218.03,126.24 Z" fill="#C8BFB2"/>
</svg>