<svg xmlns="http://www.w3.org/2000/svg" viewBox="0 0 241 98">
  <path d="M5.00,82.00 L5.00,10.00 L20.41,10.00 L20.41,82.00 L5.00,82.00 Z M12.20,82.00 L12.20,70.20 L55.00,70.20 L55.00,82.00 L12.20,82.00 Z" fill="#2B2724"/>
  <path d="M64.00,82.00 L64.00,10.00 L79.41,10.00 L79.41,82.00 L64.00,82.00 Z" fill="#2B2724"/>
  <path d="M 101.41,82.00 L 107.41,82.00 L 107.41,40.00 C 107.41,20.00 115.41,12.00 125.41,12.00 C 135.41,12.00 143.41,20.00 143.41,40.00 L 143.41,82.00 L 149.41,82.00" fill="none" stroke="#B87946" stroke-width="13" stroke-linecap="round" stroke-linejoin="round"/>
  <path d="M165.41,82.00 L165.41,10.00 L180.81,10.00 L180.81,82.00 L165.41,82.00 Z M175.91,44.59 L208.31,10.00 L228.81,10.00 L194.61,44.59 L175.91,44.59 Z M209.91,82.00 L175.70,44.59 L194.61,44.59 L230.81,82.00 L209.91,82.00 Z" fill="#2B2724"/>
</svg>