<svg xmlns="http://www.w3.org/2000/svg" viewBox="-15 -50 271 160">
  <rect x="-15" y="-50" width="271" height="160" fill="#F7F4EE"/>

  <!-- base wordmark -->
  <path d="M5.00,82.00 L5.00,10.00 L20.41,10.00 L20.41,82.00 L5.00,82.00 Z M12.20,82.00 L12.20,70.20 L55.00,70.20 L55.00,82.00 L12.20,82.00 Z" fill="#2B2724"/>
  <path d="M64.00,82.00 L64.00,10.00 L79.41,10.00 L79.41,82.00 L64.00,82.00 Z" fill="#2B2724"/>
  <path d="M 101.41,82.00 L 107.41,82.00 L 107.41,40.00 C 107.41,20.00 115.41,12.00 125.41,12.00 C 135.41,12.00 143.41,20.00 143.41,40.00 L 143.41,82.00 L 149.41,82.00" fill="none" stroke="#B87946" stroke-width="13" stroke-linecap="round" stroke-linejoin="round"/>
  <path d="M165.41,82.00 L165.41,10.00 L180.81,10.00 L180.81,82.00 L165.41,82.00 Z M175.91,44.59 L208.31,10.00 L228.81,10.00 L194.61,44.59 L175.91,44.59 Z M209.91,82.00 L175.70,44.59 L194.61,44.59 L230.81,82.00 L209.91,82.00 Z" fill="#2B2724"/>

  <!-- flame on top -->
  <g transform="translate(125,-8)">
    <path d="M0,0 C-6,-8 -4,-16 0,-22 C2,-15 6,-13 5,-6 C9,-9 10,-15 7,-20 C14,-14 14,-4 6,2 C10,0 12,-4 12,-8 C15,-2 12,4 6,6 C-1,8 -4,3 0,0 Z" fill="#E8874A"/>
  </g>

  <!-- Thick painterly brush-stroke arrows, hand-drawn feel: irregular width,
       wobble in the curve, chunky built-in arrowhead (not a thin line + marker) -->

  <!-- Arrow 1: K -> over the kiln -> I -->
  <path d="M 210,10
           C 208,-8 195,-24 175,-32
           C 155,-39 135,-38 118,-31
           C 100,-24 88,-13 80,2
           L 68,-3
           L 84,14
           L 96,-8
           L 85,-2
           C 92,-14 102,-23 116,-28
           C 133,-34 151,-35 168,-29
           C 185,-23 196,-10 198,5
           Z"
        fill="#C97A3D"/>

  <!-- Arrow 2: I -> L -->
  <path d="M 68,10
           C 62,-2 50,-11 36,-13
           C 25,-15 15,-13 8,-8
           L 2,-16
           L 14,3
           L 28,-10
           L 20,-8
           C 25,-11 32,-12 40,-10
           C 51,-8 60,-1 65,8
           Z"
        fill="#C97A3D"/>

  <!-- Arrow 3: L bottom -> into the kiln, final stop -->
  <path d="M 26,84
           C 22,100 32,116 50,122
           C 68,128 88,124 100,112
           C 108,104 112,92 110,78
           L 120,80
           L 104,98
           L 92,78
           L 101,82
           C 102,92 99,101 92,108
           C 82,117 66,120 51,115
           C 36,110 28,98 31,86
           Z"
        fill="#C97A3D"/>
</svg>
